{
    "asset" : {
        "generator" : "Khronos glTF Blender I/O v3.4.50",
        "version" : "2.0"
    },
    "scene" : 0,
    "scenes" : [
        {
            "name" : "Scene",
            "nodes" : [
                0
            ]
        }
    ],
    "nodes" : [
        {
            "mesh" : 0,
            "name" : "Manneken.001",
            "rotation" : [
                0.5497100353240967,
                0.44476842880249023,
                -0.4447685480117798,
                0.5497098565101624
            ],
            "scale" : [
                0.042007364332675934,
                0.042007364332675934,
                0.04200736805796623
            ],
            "translation" : [
                -0.015029054135084152,
                -0.08744898438453674,
                -0.031026585027575493
            ]
        }
    ],
    "materials" : [
        {
            "doubleSided" : true,
            "name" : "Material.004",
            "pbrMetallicRoughness" : {
                "baseColorFactor" : [
                    0.800000011920929,
                    0.800000011920929,
                    0.800000011920929,
                    1
                ],
                "metallicFactor" : 0,
                "roughnessFactor" : 0.5
            }
        }
    ],
    "meshes" : [
        {
            "name" : "Manneken.002",
            "primitives" : [
                {
                    "attributes" : {
                        "POSITION" : 0,
                        "TEXCOORD_0" : 1,
                        "NORMAL" : 2
                    },
                    "indices" : 3,
                    "material" : 0
                }
            ]
        }
    ],
    "accessors" : [
        {
            "bufferView" : 0,
            "componentType" : 5126,
            "count" : 3964,
            "max" : [
                20.40052032470703,
                34.301334381103516,
                -2.741208076477051
            ],
            "min" : [
                -16.89138412475586,
                -27.53695297241211,
                -122.75609588623047
            ],
            "type" : "VEC3"
        },
        {
            "bufferView" : 1,
            "componentType" : 5126,
            "count" : 3964,
            "type" : "VEC2"
        },
        {
            "bufferView" : 2,
            "componentType" : 5126,
            "count" : 3964,
            "type" : "VEC3"
        },
        {
            "bufferView" : 3,
            "componentType" : 5123,
            "count" : 6372,
            "type" : "SCALAR"
        }
    ],
    "bufferViews" : [
        {
            "buffer" : 0,
            "byteLength" : 47568,
            "byteOffset" : 0,
            "target" : 34962
        },
        {
            "buffer" : 0,
            "byteLength" : 31712,
            "byteOffset" : 47568,
            "target" : 34962
        },
        {
            "buffer" : 0,
            "byteLength" : 47568,
            "byteOffset" : 79280,
            "target" : 34962
        },
        {
            "buffer" : 0,
            "byteLength" : 12744,
            "byteOffset" : 126848,
            "target" : 34963
        }
    ],
    "buffers" : [
        {
            "byteLength" : 139592,
            "uri" : "data:application/octet-stream;base64,"
        }
    ]
}
